Coordinates
version=1
nRows=14
nColumns=40
inDegrees=yes

Units are S.I. units (second, meters, Newtons, ...)
Angles are in degrees.

endheader
time	pelvis_tilt	pelvis_list	pelvis_rotation	pelvis_tx	pelvis_ty	pelvis_tz	hip_flexion_r	hip_adduction_r	hip_rotation_r	knee_angle_r	knee_angle_r_beta	ankle_angle_r	subtalar_angle_r	mtp_angle_r	hip_flexion_l	hip_adduction_l	hip_rotation_l	knee_angle_l	knee_angle_l_beta	ankle_angle_l	subtalar_angle_l	mtp_angle_l	lumbar_extension	lumbar_bending	lumbar_rotation	arm_flex_r	arm_add_r	arm_rot_r	elbow_flex_r	pro_sup_r	wrist_flex_r	wrist_dev_r	arm_flex_l	arm_add_l	arm_rot_l	elbow_flex_l	pro_sup_l	wrist_flex_l	wrist_dev_l
     16.62250000	     -2.72828300	     -3.38099634	     -3.21112317	      1.10908191	      0.93452218	      0.39990417	     32.62870349	     -6.63772248	     -6.89922045	     59.86477499	     59.86477499	      4.35237184	    -14.76313722	      1.87112268	      9.74175352	     -4.26419939	    -11.26478794	     19.38857165	     19.38857165	     13.58694205	    -10.91278933	     -3.08793662	    -10.71458407	      4.80493344	      1.56747554	      1.53954885	    -13.03665249	     -6.07359527	     61.87225136	     45.83461523	      0.00000000	      0.00000000	     14.36573286	    -13.93945037	      3.14559192	     41.45521432	     46.36181400	      0.00000000	      0.00000000
     16.63357143	     -2.46102127	     -3.24334600	     -3.52456189	      1.10848533	      0.93489737	      0.39971398	     33.05061907	     -6.55922331	     -6.83217475	     57.34846947	     57.34846947	      4.21501305	    -14.36229184	      2.04379638	      8.34009170	     -3.97096279	    -11.69060222	     18.47814881	     18.47814881	     13.82953874	    -10.57201157	     -3.29749853	    -11.12475721	      4.79143836	      1.86608565	     -0.17091685	    -13.21254007	     -6.21331697	     58.26205411	     45.94637944	      0.00000000	      0.00000000	     16.36430132	    -14.40047730	      3.11902679	     42.81611848	     46.39377914	      0.00000000	      0.00000000
     16.64464286	     -2.33600658	     -3.13677016	     -3.78431533	      1.10787802	      0.93497955	      0.39959361	     33.43635456	     -6.45728857	     -6.91901788	     54.48068286	     54.48068286	      3.90582221	    -13.89667998	      1.73454170	      7.09840667	     -3.71804920	    -12.08414712	     17.54425071	     17.54425071	     13.87199905	    -10.24471987	     -4.07908409	    -11.23780172	      4.81937630	      1.46830517	     -0.28583809	    -12.67187880	     -7.28552031	     51.59519377	     46.18978397	      0.00000000	      0.00000000	     17.88948473	    -15.37954615	      3.50042494	     44.13732595	     46.37658626	      0.00000000	      0.00000000
     16.65571429	     -2.14710113	     -2.96115875	     -4.06193585	      1.10738279	      0.93497211	      0.39953399	     33.63959994	     -6.39514466	     -7.01023601	     51.40351716	     51.40351716	      3.78999181	    -13.19625531	      1.83751723	      5.73720534	     -3.36473590	    -12.52234360	     16.53933289	     16.53933289	     14.11915324	     -9.73681596	     -4.31521484	    -11.53932530	      4.80775690	      1.86239773	     -2.06903658	    -12.91909966	     -7.44764049	     48.61122096	     46.28209289	      0.00000000	      0.00000000	     19.81281089	    -15.75051073	      3.32498206	     45.60696485	     46.42616931	      0.00000000	      0.00000000
     16.66678571	     -2.11204484	     -2.84960537	     -4.24306984	      1.10686491	      0.93464292	      0.39957117	     33.77770757	     -6.27285111	     -7.31230619	     47.95242035	     47.95242035	      3.29549813	    -12.49448059	      0.99008671	      4.57074315	     -3.10826770	    -12.93958738	     15.53831620	     15.53831620	     14.05956850	     -9.25084169	     -5.40138517	    -11.57106336	      4.83793539	      1.39526713	     -1.91276747	    -12.44053353	     -8.86006616	     41.89159561	     46.54963061	      0.00000000	      0.00000000	     21.04024412	    -16.71898819	      3.48735291	     47.29405859	     46.44008205	      0.00000000	      0.00000000
     16.67785714	     -2.06655795	     -2.68441729	     -4.42748858	      1.10654284	      0.93411024	      0.39972424	     33.77002883	     -6.15710578	     -7.61626571	     44.33602469	     44.33602469	      2.92179899	    -11.58137792	      0.24594937	      3.33719535	     -2.77193479	    -13.36983858	     14.45344377	     14.45344377	     14.05088217	     -8.72602428	     -6.21870161	    -11.65751835	      4.83122666	      1.28449500	     -2.75300627	    -12.29617899	    -10.06438347	     37.49968698	     46.71710708	      0.00000000	      0.00000000	     22.41965485	    -17.36354754	      3.20370213	     49.29514760	     46.50747514	      0.00000000	      0.00000000
     16.68892857	     -2.00924929	     -2.54293189	     -4.63695903	      1.10629815	      0.93345902	      0.40001034	     33.60216014	     -6.00134164	     -8.06902023	     40.57913286	     40.57913286	      2.85493252	    -10.22905950	      0.48519853	      2.08330124	     -2.45402637	    -13.75989741	     13.39411514	     13.39411514	     14.35020728	     -8.05302100	     -6.50417188	    -11.79398683	      4.86256755	      1.69595645	     -4.57695878	    -12.58381869	    -10.26951543	     35.50193951	     46.78234256	      0.00000000	      0.00000000	     24.04968719	    -17.71602823	      2.88272709	     50.76543483	     46.56912779	      0.00000000	      0.00000000
     16.70000000	     -1.96441971	     -2.33995198	     -4.81650723	      1.10624826	      0.93253139	      0.40044501	     33.31713050	     -5.87832703	     -8.58126798	     36.76006131	     36.76006131	      2.77150317	     -8.66546571	      0.61151112	      0.83161822	     -2.08645188	    -14.26090829	     12.31229827	     12.31229827	     14.50441159	     -7.20014932	     -7.12363495	    -11.88038367	      4.80945026	      1.94205177	     -6.02161679	    -12.67726211	    -10.68200684	     32.73288186	     46.89335396	      0.00000000	      0.00000000	     25.52019990	    -18.13463417	      2.62654805	     52.55499682	     46.62764522	      0.00000000	      0.00000000
     16.71107143	     -2.01240084	     -2.22298778	     -4.92611767	      1.10641476	      0.93125554	      0.40105764	     32.91664407	     -5.60618253	     -9.20075213	     32.81751777	     32.81751777	      2.59206403	     -7.14761705	      0.48845202	     -0.29598888	     -1.84091387	    -14.69344382	     11.26493266	     11.26493266	     14.31658383	     -6.58251773	     -8.73843666	    -11.77760427	      4.82549861	      1.34151844	     -5.88116407	    -12.48182482	    -12.64398236	     27.44062765	     47.19933818	      0.00000000	      0.00000000	     25.91311220	    -19.29523005	      2.22252357	     55.50113214	     46.71592374	      0.00000000	      0.00000000
     16.72214286	     -1.98960426	     -2.11927721	     -5.01207312	      1.10679841	      0.92987582	      0.40179959	     32.33696503	     -5.29105306	     -9.85627469	     29.01303953	     29.01303953	      2.64918747	     -5.48560652	      1.22338797	     -1.44827181	     -1.59567808	    -14.92065632	     10.39012855	     10.39012855	     14.65728960	     -6.01982050	     -8.99047501	    -11.76776969	      4.87880550	      1.56814938	     -7.74485694	    -12.67840165	    -12.92199992	     26.22358666	     47.24965139	      0.00000000	      0.00000000	     27.28424937	    -19.57826693	      1.84704476	     56.95185402	     46.78002380	      0.00000000	      0.00000000
     16.73321429	     -1.90173449	     -1.90851833	     -5.10392214	      1.10747713	      0.92826893	      0.40272187	     31.72193148	     -5.10167845	    -10.57122437	     25.65393039	     25.65393039	      2.92347950	     -3.59932637	      2.28156344	     -2.71327624	     -1.23576326	    -15.28349535	      9.44423712	      9.44423712	     14.90928639	     -5.24148372	     -9.51096306	    -11.81447036	      4.75325761	      1.87771731	     -9.43801458	    -12.72305380	    -13.36504701	     24.71786928	     47.32796309	      0.00000000	      0.00000000	     28.48951118	    -19.88863775	      1.49934318	     59.03220152	     46.85133513	      0.00000000	      0.00000000
     16.74428571	     -1.92793419	     -1.75869175	     -5.12893690	      1.10826124	      0.92631031	      0.40379643	     31.29219609	     -4.86683828	    -11.33341619	     22.90937701	     22.90937701	      3.89876569	     -1.70620718	      5.51876174	     -3.73712735	     -1.00608373	    -15.57566595	      8.71305011	      8.71305011	     15.00938538	     -4.65097205	    -10.58348549	    -11.71687410	      4.67372317	      1.41761231	    -10.26685864	    -12.64733668	    -15.13711156	     22.54995454	     47.54780770	      0.00000000	      0.00000000	     28.55323493	    -20.93703165	      0.96471343	     62.63887767	     46.97053179	      0.00000000	      0.00000000
     16.75535714	     -1.88729438	     -1.69099641	     -5.09771720	      1.10930983	      0.92426872	      0.40508218	     30.65418383	     -4.50175317	    -11.99331562	     20.35564162	     20.35564162	      4.02814037	     -0.62671113	      6.46930077	     -4.75114498	     -0.88739069	    -15.58779574	      8.21341616	      8.21341616	     15.47980144	     -4.32534106	    -10.73558243	    -11.63633114	      4.69224014	      1.69822898	    -12.05036988	    -12.70875064	    -15.42103548	     21.66075540	     47.59239494	      0.00000000	      0.00000000	     29.70798151	    -21.08178677	      0.61357036	     64.12606552	     47.03318990	      0.00000000	      0.00000000
     16.76642857	     -1.89688048	     -1.54790493	     -5.03033213	      1.11041368	      0.92201591	      0.40642347	     30.21140565	     -4.27752553	    -12.59757845	     18.52958596	     18.52958596	      4.11705756	      0.27264511	      7.41182666	     -5.61824258	     -0.72883528	    -15.59831644	      7.88142592	      7.88142592	     15.99425651	     -3.99465312	    -10.88090081	    -11.48753199	      4.60937892	      1.86501328	    -13.77949024	    -12.62719031	    -15.73134180	     20.99528735	     47.63065997	      0.00000000	      0.00000000	     30.69843334	    -21.33743521	      0.31652213	     65.97354564	     47.09621860	      0.00000000	      0.00000000
